<svg width="761" height="346" viewBox="0 0 761 346" fill="none" xmlns="http://www.w3.org/2000/svg">
<path d="M366.494 187H389.58V161.772H399.694L416.469 187H443.125L423.252 157.964C433.605 153.564 440.388 145.112 440.388 132.379V132.141C440.388 123.93 437.888 117.504 433.01 112.741C427.417 107.029 418.61 103.697 405.878 103.697H366.494V187ZM389.58 143.684V123.692H404.693C412.428 123.692 417.193 127.024 417.193 133.569V133.807C417.193 139.876 412.671 143.684 404.817 143.684H389.58ZM473.113 187H496.318V155.465L527.972 103.7H502.149L484.894 134.045L467.758 103.7H441.458L473.112 155.822L473.113 187ZM563.673 188.428C583.903 188.428 597.35 178.313 597.35 161.296V161.058C597.35 145.469 585.45 139.281 566.291 135.116C554.748 132.5 551.894 130.832 551.894 127.024V126.786C551.894 123.811 554.631 121.431 560.224 121.431C567.602 121.431 575.932 124.287 583.548 129.642L595.091 113.342C586.045 106.08 574.978 102.272 560.817 102.272C540.825 102.272 528.568 113.458 528.568 128.928V129.166C528.568 146.302 542.253 151.3 559.984 155.346C571.289 157.964 574.026 159.868 574.026 163.319V163.557C574.026 167.127 570.694 169.269 564.506 169.269C554.867 169.269 545.706 165.818 537.493 159.269L524.64 174.624C534.875 183.787 548.917 188.428 563.673 188.428ZM626.505 187H649.594V123.93H674.584V103.7H601.515V123.93H626.505V187ZM684.694 187H707.78V155.346H737.411V187H760.494V103.7H737.413V134.878H707.782V103.7H684.694V187Z" fill="white"/>
<path d="M405.878 237.544C404.714 241.698 402.369 245.136 398.842 247.857C395.279 250.614 391.233 251.993 386.703 251.993C381.207 251.993 376.507 250.05 372.604 246.165C368.719 242.262 366.776 237.562 366.776 232.066C366.776 226.587 368.719 221.897 372.604 217.994C376.507 214.109 381.207 212.166 386.703 212.166C391.304 212.166 395.404 213.589 399.003 216.436C402.566 219.211 404.893 222.738 405.985 227.017H402.978C401.921 223.544 399.916 220.679 396.962 218.423C393.936 216.15 390.517 215.013 386.703 215.013C381.977 215.013 377.948 216.678 374.618 220.008C371.288 223.338 369.623 227.357 369.623 232.066C369.623 236.792 371.288 240.821 374.618 244.151C377.948 247.481 381.977 249.146 386.703 249.146C390.427 249.146 393.784 248.045 396.774 245.843C399.71 243.694 401.742 240.928 402.87 237.544H405.878ZM427.658 214.717C432.456 217.063 434.855 221.1 434.855 226.829C434.855 231.681 433.118 235.333 429.645 237.786C427.443 239.326 424.793 240.275 421.696 240.633L432.76 251.375H428.598L417.641 240.74L414.821 237.947H420.353C422.394 237.947 424.39 237.464 426.342 236.497C430.084 234.635 431.955 231.412 431.955 226.829C431.955 222.246 430.084 219.023 426.342 217.161C424.408 216.194 422.412 215.711 420.353 215.711H410.927V237.947V240.74V251.375H408.107V212.918H410.927H420.353C422.77 212.918 425.205 213.518 427.658 214.717ZM478.361 251.429H474.95L458.112 219.524L441.381 251.429H437.809L456.178 216.463V216.436L458.112 212.837L459.965 216.329L478.361 251.429ZM510.158 237.598V240.418H488.19V237.598H510.158ZM510.265 212.837V215.711H483.759V251.348L480.832 251.375V212.837H510.265ZM542.196 212.918V215.738H529.091V251.375H526.271V215.738H513.219V212.918H542.196Z" fill="white"/>
<path d="M190.14 96.189L129.261 35.31L48.777 115.794H0V201.894H84.606V201.394L84.774 201.562L190.14 96.189Z" fill="white"/>
<path d="M103.929 60.879L164.808 0L280.608 115.8H329.381V201.9H244.781V201.4L244.613 201.568L103.929 60.879Z" fill="white"/>
<path d="M147.757 281.1L188.269 321.612L241.827 268.054L201.216 227.642L147.757 281.1Z" fill="white"/>
<path d="M205.126 304.6L164.615 345.112L87.558 268.054L133.722 227.642L205.126 304.6Z" fill="white"/>
</svg>
